<svg width="263" height="263" viewBox="0 0 263 263" fill="none" xmlns="http://www.w3.org/2000/svg">
<g filter="url(#filter0_d_294_891)">
<rect x="50" y="46" width="163" height="163" rx="50" fill="url(#paint0_linear_294_891)"/>
</g>
<path d="M101.167 108.333H95V123.75H95.0308L95 151.5C95 154.892 97.775 157.667 101.167 157.667H156.667V151.5H101.167V108.333ZM162.833 102.167H138.167L132 96H113.5C110.108 96 107.364 98.775 107.364 102.167L107.333 139.167C107.333 142.558 110.108 145.333 113.5 145.333H162.833C166.225 145.333 169 142.558 169 139.167V108.333C169 104.942 166.225 102.167 162.833 102.167ZM116.583 136.083L130.458 117.583L141.25 131.489L148.958 122.208L159.75 136.083H116.583Z" fill="white"/>
<defs>
<filter id="filter0_d_294_891" x="0" y="0" width="263" height="263" filterUnits="userSpaceOnUse" color-interpolation-filters="sRGB">
<feFlood flood-opacity="0" result="BackgroundImageFix"/>
<feColorMatrix in="SourceAlpha" type="matrix" values="0 0 0 0 0 0 0 0 0 0 0 0 0 0 0 0 0 0 127 0" result="hardAlpha"/>
<feOffset dy="4"/>
<feGaussianBlur stdDeviation="25"/>
<feComposite in2="hardAlpha" operator="out"/>
<feColorMatrix type="matrix" values="0 0 0 0 0.732644 0 0 0 0 0.398125 0 0 0 0 0.975 0 0 0 0.5 0"/>
<feBlend mode="normal" in2="BackgroundImageFix" result="effect1_dropShadow_294_891"/>
<feBlend mode="normal" in="SourceGraphic" in2="effect1_dropShadow_294_891" result="shape"/>
</filter>
<linearGradient id="paint0_linear_294_891" x1="131.5" y1="46" x2="131.5" y2="209" gradientUnits="userSpaceOnUse">
<stop stop-color="#BB66F9"/>
<stop offset="1" stop-color="#9604FF"/>
</linearGradient>
</defs>
</svg>
