<svg width="263" height="263" viewBox="0 0 263 263" fill="none" xmlns="http://www.w3.org/2000/svg">
<g filter="url(#filter0_d_294_879)">
<rect x="50" y="46" width="163" height="163" rx="50" fill="url(#paint0_linear_294_879)"/>
</g>
<path d="M104 138V144H122V138H104ZM104 102V108H134V102H104ZM134 150V144H158V138H134V132H128V150H134ZM116 114V120H104V126H116V132H122V114H116ZM158 126V120H128V126H158ZM140 114H146V108H158V102H146V96H140V114Z" fill="white"/>
<defs>
<filter id="filter0_d_294_879" x="0" y="0" width="263" height="263" filterUnits="userSpaceOnUse" color-interpolation-filters="sRGB">
<feFlood flood-opacity="0" result="BackgroundImageFix"/>
<feColorMatrix in="SourceAlpha" type="matrix" values="0 0 0 0 0 0 0 0 0 0 0 0 0 0 0 0 0 0 127 0" result="hardAlpha"/>
<feOffset dy="4"/>
<feGaussianBlur stdDeviation="25"/>
<feComposite in2="hardAlpha" operator="out"/>
<feColorMatrix type="matrix" values="0 0 0 0 0.732644 0 0 0 0 0.398125 0 0 0 0 0.975 0 0 0 0.5 0"/>
<feBlend mode="normal" in2="BackgroundImageFix" result="effect1_dropShadow_294_879"/>
<feBlend mode="normal" in="SourceGraphic" in2="effect1_dropShadow_294_879" result="shape"/>
</filter>
<linearGradient id="paint0_linear_294_879" x1="131.5" y1="46" x2="131.5" y2="209" gradientUnits="userSpaceOnUse">
<stop stop-color="#BB66F9"/>
<stop offset="1" stop-color="#9604FF"/>
</linearGradient>
</defs>
</svg>
