<svg width="263" height="263" viewBox="0 0 263 263" fill="none" xmlns="http://www.w3.org/2000/svg">
<g filter="url(#filter0_d_294_896)">
<rect x="50" y="46" width="163" height="163" rx="50" fill="url(#paint0_linear_294_896)"/>
</g>
<path d="M155.4 120.333V150.333H108.667V103.667H138.667V97H108.734C105.067 97 102.067 100 102.067 103.667V150.333C102.067 154 105.067 157 108.734 157H155.4C159.067 157 162.067 154 162.067 150.333V120.333H155.4ZM148.667 120.333L151.8 113.467L158.667 110.333L151.8 107.2L148.667 100.333L145.534 107.2L138.667 110.333L145.534 113.467L148.667 120.333ZM136.167 122.833L132 113.667L127.834 122.833L118.667 127L127.834 131.167L132 140.333L136.167 131.167L145.334 127L136.167 122.833Z" fill="white"/>
<defs>
<filter id="filter0_d_294_896" x="0" y="0" width="263" height="263" filterUnits="userSpaceOnUse" color-interpolation-filters="sRGB">
<feFlood flood-opacity="0" result="BackgroundImageFix"/>
<feColorMatrix in="SourceAlpha" type="matrix" values="0 0 0 0 0 0 0 0 0 0 0 0 0 0 0 0 0 0 127 0" result="hardAlpha"/>
<feOffset dy="4"/>
<feGaussianBlur stdDeviation="25"/>
<feComposite in2="hardAlpha" operator="out"/>
<feColorMatrix type="matrix" values="0 0 0 0 0.732644 0 0 0 0 0.398125 0 0 0 0 0.975 0 0 0 0.5 0"/>
<feBlend mode="normal" in2="BackgroundImageFix" result="effect1_dropShadow_294_896"/>
<feBlend mode="normal" in="SourceGraphic" in2="effect1_dropShadow_294_896" result="shape"/>
</filter>
<linearGradient id="paint0_linear_294_896" x1="131.5" y1="46" x2="131.5" y2="209" gradientUnits="userSpaceOnUse">
<stop stop-color="#BB66F9"/>
<stop offset="1" stop-color="#9604FF"/>
</linearGradient>
</defs>
</svg>
