<svg width="26" height="21" viewBox="0 0 26 21" fill="none" xmlns="http://www.w3.org/2000/svg">
<path d="M21.6812 2.26069C21.6741 2.24672 21.6623 2.23578 21.648 2.22981C19.99 1.45831 18.2403 0.908161 16.4428 0.593146C16.4265 0.590067 16.4096 0.592288 16.3946 0.599495C16.3796 0.606701 16.3672 0.618524 16.3592 0.633284C16.1209 1.07184 15.9046 1.52232 15.7112 1.98299C13.7735 1.68468 11.8026 1.68468 9.86495 1.98299C9.67019 1.52115 9.45045 1.07056 9.20673 0.633284C9.19837 0.618845 9.18591 0.607294 9.17099 0.600134C9.15607 0.592975 9.13936 0.59054 9.12305 0.593146C7.32533 0.9075 5.57557 1.45769 3.9178 2.22986C3.90361 2.23596 3.89164 2.24638 3.88353 2.25967C0.568323 7.28083 -0.339838 12.1785 0.105675 17.0156C0.106928 17.0274 0.110519 17.0389 0.116235 17.0493C0.121951 17.0597 0.129674 17.0689 0.138945 17.0762C2.06936 18.5258 4.22856 19.6324 6.52439 20.3485C6.54055 20.3534 6.55782 20.3532 6.57386 20.3479C6.5899 20.3426 6.60394 20.3324 6.61411 20.3187C7.1072 19.6383 7.54412 18.9177 7.92042 18.1644C7.92559 18.1541 7.92854 18.1427 7.92908 18.1312C7.92962 18.1196 7.92773 18.108 7.92355 18.0972C7.91936 18.0864 7.91297 18.0767 7.90479 18.0686C7.89661 18.0605 7.88683 18.0542 7.8761 18.0502C7.18711 17.7829 6.52009 17.4606 5.8813 17.0864C5.86969 17.0794 5.85995 17.0697 5.85292 17.0581C5.84589 17.0464 5.8418 17.0332 5.84101 17.0196C5.84021 17.006 5.84274 16.9923 5.84836 16.9799C5.85398 16.9675 5.86253 16.9567 5.87325 16.9485C6.00729 16.8466 6.14141 16.7407 6.2694 16.6337C6.28077 16.6242 6.29453 16.6181 6.30913 16.6161C6.32373 16.6141 6.33859 16.6163 6.35203 16.6224C10.537 18.5595 15.0679 18.5595 19.2034 16.6224C19.2168 16.6159 19.2319 16.6134 19.2467 16.6152C19.2615 16.617 19.2755 16.6231 19.287 16.6327C19.4151 16.7397 19.5492 16.8466 19.6842 16.9485C19.695 16.9566 19.7036 16.9674 19.7093 16.9797C19.715 16.9921 19.7176 17.0057 19.717 17.0193C19.7163 17.033 19.7123 17.0462 19.7053 17.0579C19.6984 17.0696 19.6887 17.0794 19.6772 17.0864C19.0398 17.4637 18.3722 17.7858 17.6814 18.0492C17.6707 18.0534 17.6609 18.0598 17.6528 18.068C17.6447 18.0762 17.6383 18.0861 17.6342 18.0969C17.6301 18.1078 17.6283 18.1194 17.629 18.1311C17.6296 18.1427 17.6326 18.154 17.6379 18.1644C18.0205 18.9135 18.4568 19.6332 18.9432 20.3175C18.9531 20.3316 18.9671 20.3421 18.9832 20.3476C18.9993 20.3532 19.0167 20.3534 19.0329 20.3484C21.3329 19.6346 23.4958 18.528 25.4287 17.0762C25.4381 17.0692 25.4459 17.0603 25.4517 17.05C25.4574 17.0398 25.4609 17.0283 25.462 17.0166C25.9953 11.4245 24.569 6.5669 21.6812 2.26069ZM8.54542 14.0703C7.28542 14.0703 6.24722 12.8976 6.24722 11.4574C6.24722 10.0172 7.26528 8.84441 8.54542 8.84441C9.83555 8.84441 10.8637 10.0274 10.8436 11.4573C10.8436 12.8976 9.82546 14.0703 8.54542 14.0703ZM17.0425 14.0703C15.7826 14.0703 14.7444 12.8976 14.7444 11.4574C14.7444 10.0172 15.7624 8.84441 17.0425 8.84441C18.3327 8.84441 19.3608 10.0274 19.3407 11.4573C19.3407 12.8976 18.3327 14.0703 17.0425 14.0703Z" fill="#959595"/>
</svg>
