<svg width="22" height="18" viewBox="0 0 22 18" fill="none" xmlns="http://www.w3.org/2000/svg">
<path d="M18.6526 1.57004C18.6465 1.55803 18.6363 1.54861 18.624 1.54348C17.1976 0.879746 15.6924 0.40645 14.1459 0.135438C14.1319 0.132789 14.1174 0.1347 14.1044 0.1409C14.0915 0.147099 14.0809 0.157271 14.074 0.16997C13.869 0.547268 13.683 0.934815 13.5165 1.33113C11.8495 1.07449 10.1539 1.07449 8.48694 1.33113C8.31938 0.933809 8.13033 0.546165 7.92066 0.16997C7.91347 0.157547 7.90275 0.147609 7.88991 0.14145C7.87707 0.135291 7.8627 0.133196 7.84867 0.135438C6.30207 0.405881 4.79673 0.879212 3.37053 1.54352C3.35833 1.54877 3.34802 1.55773 3.34105 1.56917C0.488935 5.88893 -0.292367 10.1025 0.0909135 14.2638C0.0919917 14.274 0.0950813 14.2839 0.0999984 14.2929C0.104915 14.3018 0.11156 14.3097 0.119536 14.316C1.7803 15.5632 3.63788 16.5151 5.61301 17.1312C5.62692 17.1355 5.64177 17.1353 5.65557 17.1307C5.66937 17.1261 5.68145 17.1173 5.6902 17.1056C6.11441 16.5202 6.4903 15.9003 6.81403 15.2522C6.81848 15.2433 6.82102 15.2336 6.82148 15.2236C6.82195 15.2136 6.82033 15.2037 6.81672 15.1944C6.81312 15.1851 6.80762 15.1767 6.80059 15.1698C6.79355 15.1628 6.78514 15.1574 6.77591 15.154C6.18316 14.924 5.60931 14.6467 5.05975 14.3247C5.04977 14.3188 5.04138 14.3104 5.03534 14.3004C5.02929 14.2904 5.02577 14.279 5.02509 14.2673C5.0244 14.2556 5.02658 14.2439 5.03142 14.2332C5.03625 14.2225 5.04361 14.2132 5.05283 14.2061C5.16814 14.1185 5.28353 14.0274 5.39364 13.9353C5.40343 13.9271 5.41526 13.9219 5.42782 13.9202C5.44038 13.9185 5.45317 13.9203 5.46473 13.9256C9.06515 15.5921 12.9631 15.5921 16.5209 13.9256C16.5325 13.92 16.5454 13.9179 16.5581 13.9194C16.5709 13.921 16.5829 13.9262 16.5929 13.9344C16.703 14.0265 16.8184 14.1185 16.9346 14.2061C16.9438 14.2132 16.9512 14.2224 16.9562 14.233C16.9611 14.2437 16.9633 14.2554 16.9627 14.2671C16.9621 14.2788 16.9587 14.2902 16.9527 14.3003C16.9468 14.3103 16.9384 14.3187 16.9285 14.3247C16.3802 14.6494 15.8058 14.9265 15.2115 15.1531C15.2023 15.1567 15.1939 15.1622 15.1869 15.1693C15.1799 15.1763 15.1745 15.1848 15.171 15.1942C15.1674 15.2035 15.1659 15.2135 15.1664 15.2235C15.167 15.2335 15.1696 15.2433 15.1741 15.2522C15.5033 15.8967 15.8786 16.5158 16.2971 17.1046C16.3056 17.1166 16.3176 17.1257 16.3314 17.1305C16.3453 17.1352 16.3603 17.1355 16.3743 17.1311C18.3529 16.5171 20.2138 15.565 21.8766 14.316C21.8847 14.31 21.8914 14.3024 21.8964 14.2935C21.9013 14.2847 21.9043 14.2748 21.9052 14.2647C22.3641 9.45374 21.137 5.27473 18.6526 1.57004ZM7.35172 11.73C6.26773 11.73 5.37456 10.7211 5.37456 9.48209C5.37456 8.24306 6.25041 7.2341 7.35172 7.2341C8.46164 7.2341 9.34618 8.25182 9.32885 9.48201C9.32885 10.7211 8.45296 11.73 7.35172 11.73ZM14.6619 11.73C13.5779 11.73 12.6848 10.7211 12.6848 9.48209C12.6848 8.24306 13.5606 7.2341 14.6619 7.2341C15.7719 7.2341 16.6564 8.25182 16.639 9.48201C16.639 10.7211 15.7719 11.73 14.6619 11.73Z" fill="#2D2D2F"/>
</svg>
